<svg width="102" height="24" viewBox="0 0 102 24" fill="#157FBB"
  xmlns="http://www.w3.org/2000/svg">
  <g clip-path="url(#clip0_254_1813)">
    <path d="M40.5099 5.67853V7.45248H34.6719C33.0293 7.45248 32.2033 8.29722 32.2033 10.0242V14.0039C32.2033 15.7215 33.0387 16.5944 34.6719 16.5944H40.5099V18.3402H34.3433C31.7528 18.3402 30.4763 16.9793 30.4763 14.2949V9.74266C30.4763 7.04888 31.7622 5.6973 34.3433 5.6973H40.5099V5.67853Z" />
    <path d="M44.8463 5.69733V13.9852C44.8463 15.7028 45.6816 16.5757 47.296 16.5757H51.3226C52.9652 16.5757 53.7911 15.7028 53.7911 13.9852V5.69733H55.4994V14.2761C55.4994 16.9699 54.1947 18.3215 51.623 18.3215H46.9769C44.3864 18.3215 43.1099 16.9605 43.1099 14.2761V5.69733H44.8463Z" />
    <path d="M60.7087 0V13.9945C60.7087 15.7122 61.5441 16.5851 63.1584 16.5851H67.232C68.8745 16.5851 69.7005 15.7122 69.7005 13.9945V10.0149C69.7005 8.29722 68.8651 7.4431 67.232 7.4431H61.5722V5.67853H67.5605C70.151 5.67853 71.4275 7.0395 71.4275 9.7239V14.2761C71.4275 16.9699 70.1416 18.3215 67.5605 18.3215H62.8393C60.2488 18.3215 58.9723 16.9605 58.9723 14.2761V0H60.7087Z" />
    <path d="M76.3551 13.9945C76.3551 15.7122 77.2186 16.5851 78.9175 16.5851H82.5874C84.2863 16.5851 85.1498 15.7122 85.1498 13.9945V10.0149C85.1498 8.29722 84.2863 7.4431 82.5874 7.4431H78.9175C77.2186 7.4431 76.3551 8.28784 76.3551 10.0149V13.9945ZM82.9347 5.67853C85.6003 5.67853 86.9519 7.0395 86.9519 9.72389V14.2855C86.9519 16.9793 85.6003 18.3309 82.9347 18.3309H78.5702C75.8858 18.3309 74.553 16.9699 74.553 14.2855V9.72389C74.553 7.03011 75.8858 5.67853 78.5702 5.67853H82.9347Z" />
    <path d="M100.496 5.67853V7.20845H92.8275C91.7575 7.20845 91.2319 7.71529 91.2319 8.71021V9.70512C91.2319 10.6249 91.7106 11.0849 92.7055 11.0849H98.3277C100.13 11.0849 101.04 11.9578 101.04 13.6754V15.5151C101.04 17.3829 100.064 18.3309 98.1213 18.3309H89.6739V16.8009H97.6707C98.8064 16.8009 99.3602 16.3129 99.3602 15.2992V13.8725C99.3602 12.9527 98.8815 12.4928 97.9148 12.4928H92.2925C90.4904 12.4928 89.5612 11.6199 89.5612 9.90223V8.46617C89.5612 6.62651 90.5092 5.67853 92.4146 5.67853H100.496Z" />
    <path d="M17.6457 0H5.88502C2.63747 0 0 2.6844 0 5.99765V18.0023C0 21.3156 2.63747 24 5.88502 24H17.6457C20.8932 24 23.5307 21.3156 23.5307 18.0023V5.99765C23.5213 2.6844 20.8932 0 17.6457 0ZM17.6457 1.77395C19.9359 1.77395 21.7943 3.66993 21.7943 6.00704V18.0117C21.7943 20.3488 19.9359 22.2448 17.6457 22.2448H5.88502C3.59484 22.2448 1.73641 20.3488 1.73641 18.0117V5.99765C1.73641 3.66054 3.59484 1.76457 5.88502 1.76457H17.6457V1.77395Z" />
  </g>
  <defs>
    <clipPath id="clip0_254_1813">
      <rect width="101.04" height="24" fill="white"/>
    </clipPath>
  </defs>
</svg>
